<?xml version="1.0" encoding="UTF-8"?>
<svg version="1.1" xmlns="http://www.w3.org/2000/svg" width="76" height="78">
<path d="M0 0 C1.28261719 0.30873047 2.56523438 0.61746094 3.88671875 0.93554688 C5.10746094 1.24169922 6.32820313 1.54785156 7.5859375 1.86328125 C8.69759277 2.14083252 9.80924805 2.41838379 10.95458984 2.7043457 C13.625 3.6875 13.625 3.6875 15.625 6.6875 C15.68673638 9.25102973 15.63271076 11.64268305 15.4375 14.1875 C15.38416504 14.90728027 15.33083008 15.62706055 15.27587891 16.36865234 C14.00584571 31.29237581 8.07934608 46.61007009 -3.375 56.6875 C-8.67750892 60.68326527 -13.56667933 64.32916733 -20.375 64.6875 C-32.85712058 59.83551582 -41.27453014 49.31150407 -46.8515625 37.58203125 C-50.94508243 27.75518953 -52.92222435 17.35201179 -52.375 6.6875 C-49.8763509 2.93952635 -48.62181598 2.9333531 -44.3359375 1.86328125 C-43.11519531 1.55712891 -41.89445312 1.25097656 -40.63671875 0.93554688 C-39.35410156 0.62681641 -38.07148437 0.31808594 -36.75 0 C-35.49058594 -0.32033203 -34.23117188 -0.64066406 -32.93359375 -0.97070312 C-20.41182301 -4.05187336 -12.50856847 -3.18155503 0 0 Z " fill="#f49c36" transform="translate(56.375,8.3125)"/>
<path d="M0 0 C2.72674005 0.89592887 5.33657437 1.91657263 8 3 C8.99 3.33 9.98 3.66 11 4 C13.13147396 2.97519123 13.13147396 2.97519123 15.3125 1.5 C18.41689767 -0.31216059 19.70362787 -0.99451163 23.375 -1.0625 C26.52128559 0.21099655 27.31267459 1.07851658 29 4 C30.68415652 15.55050683 27.89071962 25.76471928 21.9375 35.75 C20 38 20 38 17.75 38.875 C17.1725 38.91625 16.595 38.9575 16 39 C15.566875 38.21625 15.13375 37.4325 14.6875 36.625 C13.10779753 33.78301625 13.10779753 33.78301625 10 32 C7.54290625 31.41649495 7.54290625 31.41649495 5 32 C2.89342308 34.22360897 1.36738566 36.26522868 0 39 C-1.8046875 38.796875 -1.8046875 38.796875 -4 38 C-5.6328125 35.890625 -5.6328125 35.890625 -7.125 33.25 C-7.87136719 31.95835938 -7.87136719 31.95835938 -8.6328125 30.640625 C-12.99052786 22.22400905 -14.04706708 13.41142853 -13 4 C-9.631959 -1.68356919 -5.93712766 -1.65890332 0 0 Z " fill="#fff" transform="translate(30,18)"/>
<path d="M0 0 C2.35970636 1.18603042 4.5963101 2.52005684 6.8671875 3.8671875 C9.8551118 5.45418026 11.69233713 5.73503619 15 5 C16.423125 3.7315625 16.423125 3.7315625 17.875 2.4375 C21.51054758 -0.39822711 21.51054758 -0.39822711 25.0625 -0.125 C29.21383301 0.69413276 31.34947618 2.70692495 34 6 C37.23348434 12.46696868 35.29361077 23.12522594 33.375 29.8125 C31.08782744 36.42896347 27.99900384 43.00099616 23 48 C19.375 48.125 19.375 48.125 16 48 C15.32845067 46.71086513 14.66291141 45.41859796 14 44.125 C13.62875 43.40570313 13.2575 42.68640625 12.875 41.9453125 C12 40 12 40 12 38 C13.875 38.1875 13.875 38.1875 16 39 C17.25 41.5625 17.25 41.5625 18 44 C22.26076787 41.86604758 23.86392354 40.06771854 25.6875 35.6875 C26.08324219 34.76324219 26.47898438 33.83898438 26.88671875 32.88671875 C27.25410156 31.93410156 27.62148438 30.98148438 28 30 C28.36996094 29.04996094 28.73992188 28.09992187 29.12109375 27.12109375 C30.15540686 23.44813297 30.33679029 20.18832871 30.375 16.375 C30.41753906 14.43753906 30.41753906 14.43753906 30.4609375 12.4609375 C30.28167566 8.95695402 30.28167566 8.95695402 28.15234375 6.5390625 C26.05970216 4.72734825 26.05970216 4.72734825 23.1875 5 C20.52334917 5.83581202 18.87039347 6.61877292 16.5625 8.0625 C13.01377599 10.25668873 10.17545792 10.34085371 6 10 C6.33 9.34 6.66 8.68 7 8 C1.52578502 5.59902852 -2.01214245 4.32339988 -8 6 C-11.51326209 11.26989314 -10.43074087 18.06775273 -9.7578125 24.2109375 C-8.46553988 30.4613173 -5.42927306 36.66739836 -2 42 C0.06311766 43.37383327 0.06311766 43.37383327 2 44 C2.268125 43.236875 2.53625 42.47375 2.8125 41.6875 C4.60854093 37.6227758 4.60854093 37.6227758 7 36 C10.1875 35.8125 10.1875 35.8125 13 36 C12.2575 36.495 11.515 36.99 10.75 37.5 C7.34137326 40.59875158 5.81273937 43.82766134 4 48 C0.8125 48.375 0.8125 48.375 -3 48 C-9.29190076 42.62886521 -13.30673115 32.99651909 -15 25 C-15.14592795 22.17404913 -15.23069215 19.38868591 -15.25 16.5625 C-15.270625 15.81162109 -15.29125 15.06074219 -15.3125 14.28710938 C-15.34494252 9.67621683 -14.94454878 6.76562489 -12 3 C-8.04375264 -0.18697704 -5.00500677 -0.66733424 0 0 Z " fill="#fff" transform="translate(28,13)"/>
</svg>
